<svg width="22" height="21" viewBox="0 0 22 21" fill="none" xmlns="http://www.w3.org/2000/svg">
<path d="M3.6 9.91248H6.5V5.11248C6.5 3.99237 6.5 3.43232 6.71799 3.00449C6.90973 2.62817 7.21569 2.32221 7.59202 2.13046C8.01984 1.91248 8.5799 1.91248 9.7 1.91248H12.3C13.4201 1.91248 13.9802 1.91248 14.408 2.13046C14.7843 2.32221 15.0903 2.62817 15.282 3.00449C15.5 3.43232 15.5 3.99237 15.5 5.11248V9.91248H18.4C18.9601 9.91248 19.2401 9.91248 19.454 10.0215C19.6422 10.1173 19.7951 10.2703 19.891 10.4585C20 10.6724 20 10.9524 20 11.5125V19.9125H15.5H6.5H2V11.5125C2 10.9524 2 10.6724 2.10899 10.4585C2.20487 10.2703 2.35785 10.1173 2.54601 10.0215C2.75992 9.91248 3.03995 9.91248 3.6 9.91248Z" fill="#FFB800"/>
<path d="M6.5 9.91248H3.6C3.03995 9.91248 2.75992 9.91248 2.54601 10.0215C2.35785 10.1173 2.20487 10.2703 2.10899 10.4585C2 10.6724 2 10.9524 2 11.5125V19.9125M15.5 9.91248H18.4C18.9601 9.91248 19.2401 9.91248 19.454 10.0215C19.6422 10.1173 19.7951 10.2703 19.891 10.4585C20 10.6724 20 10.9524 20 11.5125V19.9125M15.5 19.9125V5.11248C15.5 3.99237 15.5 3.43232 15.282 3.00449C15.0903 2.62817 14.7843 2.32221 14.408 2.13046C13.9802 1.91248 13.4201 1.91248 12.3 1.91248H9.7C8.57989 1.91248 8.01984 1.91248 7.59202 2.13046C7.21569 2.32221 6.90973 2.62817 6.71799 3.00449C6.5 3.43232 6.5 3.99237 6.5 5.11248V19.9125M21 19.9125H1M10 5.91248H12M10 9.91248H12M10 13.9125H12" stroke="black" stroke-width="2" stroke-linecap="round" stroke-linejoin="round"/>
</svg>
