<svg width="20" height="21" viewBox="0 0 20 21" fill="none" xmlns="http://www.w3.org/2000/svg">
<path d="M10.9823 1.67647C10.631 1.40322 10.4553 1.2666 10.2613 1.21408C10.0902 1.16774 9.9098 1.16774 9.73865 1.21408C9.54468 1.2666 9.36902 1.40322 9.0177 1.67647L2.23539 6.9516C1.78202 7.30422 1.55534 7.48053 1.39203 7.70133C1.24737 7.89692 1.1396 8.11726 1.07403 8.35153C1 8.61599 1 8.90317 1 9.47753V16.7125C1 17.8326 1 18.3926 1.21799 18.8204C1.40973 19.1968 1.71569 19.5027 2.09202 19.6945C2.51984 19.9125 3.0799 19.9125 4.2 19.9125H6.2C6.48003 19.9125 6.62004 19.9125 6.727 19.858C6.82108 19.81 6.89757 19.7335 6.9455 19.6395C7 19.5325 7 19.3925 7 19.1125V12.5125C7 11.9524 7 11.6724 7.10899 11.4585C7.20487 11.2703 7.35785 11.1173 7.54601 11.0215C7.75992 10.9125 8.03995 10.9125 8.6 10.9125H11.4C11.9601 10.9125 12.2401 10.9125 12.454 11.0215C12.6422 11.1173 12.7951 11.2703 12.891 11.4585C13 11.6724 13 11.9524 13 12.5125V19.1125C13 19.3925 13 19.5325 13.0545 19.6395C13.1024 19.7335 13.1789 19.81 13.273 19.858C13.38 19.9125 13.52 19.9125 13.8 19.9125H15.8C16.9201 19.9125 17.4802 19.9125 17.908 19.6945C18.2843 19.5027 18.5903 19.1968 18.782 18.8204C19 18.3926 19 17.8326 19 16.7125V9.47753C19 8.90317 19 8.61599 18.926 8.35153C18.8604 8.11726 18.7526 7.89692 18.608 7.70133C18.4447 7.48053 18.218 7.30422 17.7646 6.9516L10.9823 1.67647Z" stroke="white" stroke-width="2" stroke-linecap="round" stroke-linejoin="round"/>
</svg>
