<svg width="24" height="25" viewBox="0 0 24 25" fill="none" xmlns="http://www.w3.org/2000/svg">
<path d="M12 15.0875C8.8299 15.0875 6.01077 16.6182 4.21597 18.9935C3.82968 19.5047 3.63653 19.7603 3.64285 20.1058C3.64773 20.3727 3.81533 20.7094 4.02534 20.8742C4.29716 21.0875 4.67384 21.0875 5.4272 21.0875H18.5727C19.3261 21.0875 19.7028 21.0875 19.9746 20.8742C20.1846 20.7094 20.3522 20.3727 20.3571 20.1058C20.3634 19.7603 20.1703 19.5047 19.784 18.9935C17.9892 16.6182 15.17 15.0875 12 15.0875Z" stroke="black" stroke-width="2" stroke-linecap="round" stroke-linejoin="round"/>
<path d="M12 12.0875C14.4853 12.0875 16.5 10.0728 16.5 7.58752C16.5 5.10224 14.4853 3.08752 12 3.08752C9.51469 3.08752 7.49997 5.10224 7.49997 7.58752C7.49997 10.0728 9.51469 12.0875 12 12.0875Z" stroke="black" stroke-width="2" stroke-linecap="round" stroke-linejoin="round"/>
</svg>
